<svg width="80" height="34" viewBox="0 0 80 34" xmlns="http://www.w3.org/2000/svg" xmlns:xlink="http://www.w3.org/1999/xlink"><title>logos / uliege</title><defs><path id="a" d="M0 33.868h79.356V0H0z"/></defs><g fill="none" fill-rule="evenodd"><path d="M33.065 20.887h1.262v3.205c0 .886.253 1.215.835 1.215.472 0 .79-.22 1.196-.744v-3.676h1.263v5.371h-1.032l-.1-.787h-.032c-.472.558-.999.918-1.735.918-1.152 0-1.657-.776-1.657-2.133v-3.369zm6.015 0h1.043l.088.723h.044c.483-.471 1.032-.854 1.768-.854 1.152 0 1.657.777 1.657 2.133v3.37h-1.262v-3.206c0-.886-.253-1.214-.846-1.214-.472 0-.779.23-1.229.667v3.752H39.08v-5.37z" fill="#FFF"/><mask id="b" fill="#fff"><use xlink:href="#a"/></mask><path fill="#FFF" mask="url(#b)" d="M45.304 26.258h1.263v-5.37h-1.263zm2.206-5.371h1.285l.857 2.79c.142.525.307 1.072.45 1.619h.044c.153-.547.307-1.094.46-1.62l.857-2.789h1.218l-1.833 5.371h-1.46l-1.877-5.37zm9.167 2.21c0-.853-.362-1.367-1.098-1.367-.636 0-1.185.47-1.295 1.367h2.393zm-1.13-2.34c1.46 0 2.228 1.05 2.228 2.548 0 .24-.022.46-.055.59h-3.425c.11.974.725 1.52 1.592 1.52.461 0 .856-.141 1.251-.393l.429.788c-.517.339-1.164.58-1.845.58-1.493 0-2.657-1.04-2.657-2.812 0-1.75 1.22-2.822 2.481-2.822zm3.545.13h1.043l.088.952h.044c.384-.7.955-1.083 1.526-1.083.274 0 .45.033.614.11l-.22 1.093a1.765 1.765 0 0 0-.56-.087c-.427 0-.943.295-1.272 1.105v3.281h-1.263v-5.37zm4.094 3.949c.483.372.945.602 1.493.602.582 0 .857-.274.857-.645 0-.45-.582-.646-1.153-.865-.714-.262-1.515-.667-1.515-1.564 0-.94.757-1.608 1.965-1.608.747 0 1.35.307 1.79.645l-.582.766c-.374-.273-.758-.46-1.186-.46-.538 0-.79.252-.79.591 0 .416.538.591 1.12.799.735.273 1.547.624 1.547 1.63 0 .919-.735 1.662-2.097 1.662-.735 0-1.514-.317-2.041-.743l.592-.81zm4.798 1.422h1.262v-5.37h-1.262zm3.205-4.375h-.769v-.941l.835-.055.154-1.465h1.053v1.465h1.373v.996h-1.373v2.56c0 .634.242.94.758.94.187 0 .406-.055.56-.12l.22.93c-.297.098-.67.196-1.098.196-1.252 0-1.713-.787-1.713-1.946v-2.56zm7.07 1.214c0-.853-.363-1.367-1.098-1.367-.637 0-1.186.47-1.296 1.367h2.394zm-1.131-2.34c1.46 0 2.228 1.05 2.228 2.548 0 .24-.022.46-.055.59h-3.425c.11.974.725 1.52 1.592 1.52.461 0 .856-.141 1.252-.393l.428.788c-.516.339-1.164.58-1.844.58-1.494 0-2.657-1.04-2.657-2.812 0-1.75 1.218-2.822 2.48-2.822z"/><path fill="#FAA918" mask="url(#b)" d="M6.613 14.848L0 18.652v-7.609z"/><path fill="#FFCE00" mask="url(#b)" d="M0 18.652l6.613-3.804v7.608z"/><path fill="#F48245" mask="url(#b)" d="M6.613 22.456L0 26.26v-7.608z"/><path fill="#EE3A3C" mask="url(#b)" d="M0 26.26l6.613-3.804v7.608z"/><path fill="#BCB9AD" mask="url(#b)" d="M6.613 7.24L0 11.042V3.435z"/><path fill="#7F7F77" mask="url(#b)" d="M0 11.043L6.613 7.24v7.609z"/><path fill="#ADCA7D" mask="url(#b)" d="M13.226 11.043L6.613 7.24v7.609z"/><path fill="#77C043" mask="url(#b)" d="M6.613 14.848l6.613 3.804v-7.609z"/><path fill="#2CA449" mask="url(#b)" d="M13.226 18.652l-6.613-3.804v7.608z"/><path fill="#008D47" mask="url(#b)" d="M6.613 22.456l6.613 3.804v-7.608z"/><path fill="#0066B2" mask="url(#b)" d="M6.613 30.064l6.613 3.804V26.26z"/><path fill="#00BEDB" mask="url(#b)" d="M13.226 26.26l-6.613-3.804v7.608z"/><path fill="#A05DA5" mask="url(#b)" d="M13.226 26.26l6.613 3.804v-7.608z"/><path fill="#5A2B86" mask="url(#b)" d="M19.839 30.064l-6.613-3.804v7.608z"/><path fill="#007581" mask="url(#b)" d="M26.452 11.043l-6.613 3.805V7.239z"/><path fill="#5BA4AD" mask="url(#b)" d="M19.839 7.24l6.613-3.805v7.608z"/><path fill="#585EAA" mask="url(#b)" d="M26.452 26.26l-6.613 3.804v-7.608z"/><path fill="#7F9FD2" mask="url(#b)" d="M19.839 22.456l6.613-3.804v7.608z"/><path fill="#FFF" mask="url(#b)" d="M33.065 3.438h2.983v10.676h5.235v2.507h-8.218zM43.233 16.62h2.983V3.439h-2.983zM49.553 0h3.165l1.644 2.427h-2.374L49.553 0zm-.995 3.438h8.28v2.507H51.54v2.648h4.506v2.488H51.54v3.033h5.5v2.507h-8.483V3.438zm9.499 6.672c0-1.092.172-2.066.518-2.922.345-.856.811-1.58 1.4-2.173a5.93 5.93 0 0 1 2.07-1.355 6.868 6.868 0 0 1 2.526-.465c.934 0 1.742.175 2.425.525.683.351 1.241.749 1.675 1.193l-1.644 1.84a4.095 4.095 0 0 0-1.025-.727c-.359-.175-.822-.263-1.39-.263-.514 0-.984.098-1.41.293a3.188 3.188 0 0 0-1.106.84 3.825 3.825 0 0 0-.721 1.334c-.17.525-.254 1.119-.254 1.779 0 1.362.308 2.416.924 3.164.615.748 1.545 1.123 2.79 1.123.27 0 .534-.034.792-.102.256-.067.466-.168.629-.303v-2.265h-2.192V9.2h4.83v6.066c-.474.445-1.096.822-1.867 1.132-.771.31-1.624.465-2.557.465a7.123 7.123 0 0 1-2.506-.434 5.78 5.78 0 0 1-2.04-1.284c-.582-.566-1.038-1.27-1.37-2.113-.331-.843-.497-1.817-.497-2.922m12.786-6.672h8.28v2.507h-5.297v2.648h4.505v2.488h-4.505v3.033h5.5v2.507h-8.483zM45.162 19.374c0-.427.33-.722.78-.722s.779.295.779.722c0 .415-.33.71-.78.71s-.78-.295-.78-.71m22.68 0c0-.427.33-.722.78-.722s.779.295.779.722c0 .415-.33.71-.78.71s-.779-.295-.779-.71m9.419.875h-.934l.978-1.597h1.262z"/></g></svg>